<svg xmlns="http://www.w3.org/2000/svg" xmlns:xlink="http://www.w3.org/1999/xlink" width="27" height="28" viewBox="0 0 27 28">
    <defs>
        <path id="a" d="M12.5 25.439c8.658 0 12.5-3.91 12.5-12.72S21.158 0 12.5 0 0 3.91 0 12.72s3.842 12.719 12.5 12.719z"/>
        <filter id="b" width="126%" height="125.6%" x="-13%" y="-12.8%" filterUnits="objectBoundingBox">
            <feOffset dx="3" dy="3" in="SourceAlpha" result="shadowOffsetInner1"/>
            <feComposite in="shadowOffsetInner1" in2="SourceAlpha" k2="-1" k3="1" operator="arithmetic" result="shadowInnerInner1"/>
            <feColorMatrix in="shadowInnerInner1" result="shadowMatrixInner1" values="0 0 0 0 1 0 0 0 0 1 0 0 0 0 1 0 0 0 1 0"/>
            <feOffset dx="-5" dy="-1" in="SourceAlpha" result="shadowOffsetInner2"/>
            <feComposite in="shadowOffsetInner2" in2="SourceAlpha" k2="-1" k3="1" operator="arithmetic" result="shadowInnerInner2"/>
            <feColorMatrix in="shadowInnerInner2" result="shadowMatrixInner2" values="0 0 0 0 0 0 0 0 0 0 0 0 0 0 0 0 0 0 0.05 0"/>
            <feMerge>
                <feMergeNode in="shadowMatrixInner1"/>
                <feMergeNode in="shadowMatrixInner2"/>
            </feMerge>
        </filter>
        <path id="c" d="M7.25 5.596c4.606 0 7.25-1.944 7.25-4.342 0-2.398-1.737-.62-7.25-.62S0-1.144 0 1.254s2.644 4.342 7.25 4.342z"/>
    </defs>
    <g fill="none" fill-rule="evenodd" transform="translate(1 1)">
        <use fill="#FFF0AF" xlink:href="#a"/>
        <use fill="#000" filter="url(#b)" xlink:href="#a"/>
        <use stroke="#494E61" stroke-width="1.512" xlink:href="#a"/>
        <ellipse cx="7.5" cy="8.904" fill="#494E61" rx="1.5" ry="1.526"/>
        <ellipse cx="17.5" cy="8.904" fill="#494E61" rx="1.5" ry="1.526"/>
        <g transform="translate(5.25 14.5)">
            <mask id="d" fill="#fff">
                <use xlink:href="#c"/>
            </mask>
            <use fill="#494E61" stroke="#494E61" stroke-width="2.722" xlink:href="#c"/>
            <path fill="#ED9797" d="M7.25 7.632c2.071 0 4.5-1.282 4.5-2.862s-2.429-1.717-4.5-1.717-4.5.136-4.5 1.717c0 1.58 2.429 2.862 4.5 2.862z" mask="url(#d)"/>
            <path fill="#FFF" d="M-1.25-1.272h17v2.544h-17z" mask="url(#d)"/>
        </g>
        <g stroke="#494E61" stroke-linecap="round" stroke-width="1.512">
            <path d="M20.5 6.36c0-2.643.041-2.799-5.5-2.799M10 3.561c-5.541 0-5.5.156-5.5 2.799"/>
        </g>
    </g>
</svg>
