<?xml version="1.0" encoding="UTF-8"?>
<svg width="104px" height="19px" viewBox="0 0 104 19" version="1.1" xmlns="http://www.w3.org/2000/svg" xmlns:xlink="http://www.w3.org/1999/xlink">
    <!-- Generator: Sketch 55.2 (78181) - https://sketchapp.com -->
    <title>logo-footer</title>
    <desc>Created with Sketch.</desc>
    <g id="logo-footer" stroke="none" stroke-width="1" fill="none" fill-rule="evenodd">
        <g id="newsfeeder-blue" transform="translate(2.000000, 2.000000)">
            <g id="Group-2">
                <path d="M26.2027825,12.6981818 L24.285169,12.6981818 L20.5522147,6.5746026 L20.5522147,12.6981818 L18.6346012,12.6981818 L18.6346012,3.39136415 L20.5522147,3.39136415 L24.2915611,9.52772742 L24.2915611,3.39136415 L26.2027825,3.39136415 L26.2027825,12.6981818 Z M33.4769298,8.66480134 L29.7951119,8.66480134 L29.7951119,11.1576989 L34.1161343,11.1576989 L34.1161343,12.6981818 L27.8774983,12.6981818 L27.8774983,3.39136415 L34.1033502,3.39136415 L34.1033502,4.9446311 L29.7951119,4.9446311 L29.7951119,7.16267074 L33.4769298,7.16267074 L33.4769298,8.66480134 Z M42.4897134,10.0135228 L43.7425542,3.39136415 L45.6537757,3.39136415 L43.5891451,12.6981818 L41.6587475,12.6981818 L40.1438328,6.47232987 L38.6289182,12.6981818 L36.6985205,12.6981818 L34.63389,3.39136415 L36.5451115,3.39136415 L37.8043443,10.0007388 L39.3384352,3.39136415 L40.9620146,3.39136415 L42.4897134,10.0135228 Z M51.515281,10.2564206 C51.515281,9.89420286 51.3874414,9.61615168 51.1317583,9.42225868 C50.8760752,9.22836567 50.4158526,9.02382228 49.7510766,8.80862235 C49.0863006,8.59342242 48.5600275,8.38142171 48.1722414,8.17261386 C47.115418,7.60158832 46.5870143,6.83241992 46.5870143,5.86508559 C46.5870143,5.3622422 46.7287032,4.91373819 47.0120853,4.5195601 C47.2954673,4.12538202 47.7024235,3.8175016 48.2329659,3.59590959 C48.7635083,3.37431759 49.3590278,3.26352325 50.0195425,3.26352325 C50.6843185,3.26352325 51.2766421,3.38390556 51.796531,3.62467379 C52.3164199,3.86544203 52.7201801,4.20528236 53.0078235,4.64420498 C53.295467,5.08312761 53.4392866,5.58170214 53.4392866,6.13994353 L51.5216731,6.13994353 C51.5216731,5.71380506 51.3874415,5.38248737 51.1189742,5.14598052 C50.850507,4.90947367 50.4733801,4.79122202 49.9875822,4.79122202 C49.5188299,4.79122202 49.154487,4.89029773 48.8945425,5.08845212 C48.6345981,5.2866065 48.5046278,5.5476124 48.5046278,5.87147764 C48.5046278,6.17403595 48.65697,6.42758454 48.961659,6.632131 C49.266348,6.83667747 49.714852,7.0284369 50.3071845,7.20741506 C51.398099,7.53554168 52.1928353,7.94249781 52.6914173,8.42829567 C53.1899993,8.91409352 53.4392866,9.51920107 53.4392866,10.2436365 C53.4392866,11.0490382 53.1346022,11.680779 52.5252241,12.1388778 C51.9158461,12.5969767 51.0955419,12.8260227 50.0642868,12.8260227 C49.3483742,12.8260227 48.6963921,12.6949871 48.108321,12.4329119 C47.5202499,12.1708367 47.0717459,11.8118205 46.7627955,11.3558523 C46.4538451,10.8998841 46.2993722,10.3714804 46.2993722,9.77062513 L48.2233778,9.77062513 C48.2233778,10.7976188 48.837008,11.311108 50.0642868,11.311108 C50.520255,11.311108 50.8760752,11.2184243 51.1317583,11.033054 C51.3874414,10.8476838 51.515281,10.5888086 51.515281,10.2564206 Z M60.3363032,8.89491496 L56.6544853,8.89491496 L56.6544853,12.6981818 L54.7368717,12.6981818 L54.7368717,3.39136415 L60.7965305,3.39136415 L60.7965305,4.9446311 L56.6544853,4.9446311 L56.6544853,7.34804005 L60.3363032,7.34804005 L60.3363032,8.89491496 Z M67.5081778,8.66480134 L63.8263598,8.66480134 L63.8263598,11.1576989 L68.1473823,11.1576989 L68.1473823,12.6981818 L61.9087463,12.6981818 L61.9087463,3.39136415 L68.1345982,3.39136415 L68.1345982,4.9446311 L63.8263598,4.9446311 L63.8263598,7.16267074 L67.5081778,7.16267074 L67.5081778,8.66480134 Z M74.8718137,8.66480134 L71.1899958,8.66480134 L71.1899958,11.1576989 L75.5110182,11.1576989 L75.5110182,12.6981818 L69.2723822,12.6981818 L69.2723822,3.39136415 L75.4982341,3.39136415 L75.4982341,4.9446311 L71.1899958,4.9446311 L71.1899958,7.16267074 L74.8718137,7.16267074 L74.8718137,8.66480134 Z M76.6360182,12.6981818 L76.6360182,3.39136415 L79.4996544,3.39136415 C80.3178402,3.39136415 81.0497221,3.57566627 81.6953218,3.94427605 C82.3409216,4.31288582 82.8448228,4.83702828 83.2070405,5.51671914 C83.5692582,6.19640999 83.7503643,6.96877438 83.7503643,7.83383548 L83.7503643,8.2621025 C83.7503643,9.12716359 83.5724542,9.89633199 83.2166286,10.5696308 C82.8608029,11.2429295 82.3590324,11.7649413 81.7113019,12.1356818 C81.0635715,12.5064223 80.332755,12.6939204 79.5188305,12.6981818 L76.6360182,12.6981818 Z M78.5536317,4.9446311 L78.5536317,11.1576989 L79.4804782,11.1576989 C80.2304819,11.1576989 80.8036296,10.912673 81.1999383,10.4226137 C81.5962471,9.93255449 81.7986599,9.23156722 81.8071826,8.3196309 L81.8071826,7.82744343 C81.8071826,6.88141603 81.6111619,6.16444881 81.2191145,5.67652026 C80.8270671,5.18859172 80.2539194,4.9446311 79.4996544,4.9446311 L78.5536317,4.9446311 Z M90.7432616,8.66480134 L87.0614437,8.66480134 L87.0614437,11.1576989 L91.3824661,11.1576989 L91.3824661,12.6981818 L85.1438302,12.6981818 L85.1438302,3.39136415 L91.3696821,3.39136415 L91.3696821,4.9446311 L87.0614437,4.9446311 L87.0614437,7.16267074 L90.7432616,7.16267074 L90.7432616,8.66480134 Z M95.9527784,9.29122175 L94.4250796,9.29122175 L94.4250796,12.6981818 L92.5074661,12.6981818 L92.5074661,3.39136415 L95.9655625,3.39136415 C97.0649997,3.39136415 97.9130025,3.63639009 98.5095964,4.12644933 C99.1061903,4.61650857 99.4044827,5.3089732 99.4044827,6.20386398 C99.4044827,6.8388103 99.2670551,7.36827941 98.9921958,7.79228718 C98.7173365,8.21629496 98.3007924,8.55400463 97.742551,8.80542633 L99.7560452,12.6086931 L99.7560452,12.6981818 L97.6978067,12.6981818 L95.9527784,9.29122175 Z M94.4250796,7.7379548 L95.9719545,7.7379548 C96.453491,7.7379548 96.8263565,7.61544183 97.0905624,7.37041221 C97.3547682,7.12538259 97.4868692,6.78767292 97.4868692,6.35727306 C97.4868692,5.91835044 97.3622256,5.57318346 97.1129346,5.32176176 C96.8636435,5.07034007 96.48119,4.9446311 95.9655625,4.9446311 L94.4250796,4.9446311 L94.4250796,7.7379548 Z" id="NEWSFEEDER" fill="#474AF4" fill-rule="nonzero"></path>
                <g id="Group-4" stroke="#474AF4">
                    <rect id="Rectangle" stroke-width="2" stroke-linejoin="round" x="-1" y="-1" width="13" height="17" rx="1"></rect>
                    <path d="M2.5,3.60536491 L8.81884715,3.60536491" id="Line-3" stroke-width="1.74545444"></path>
                    <path d="M2.5,7.85454499 L8.81884715,7.85454499" id="Line-3-Copy" stroke-width="1.74545444"></path>
                    <path d="M2.5,12.1037251 L8.81884715,12.1037251" id="Line-3-Copy-2" stroke-width="1.74545444"></path>
                </g>
            </g>
        </g>
    </g>
</svg>