<?xml version="1.0" encoding="UTF-8"?>
<svg width="139px" height="26px" viewBox="0 0 139 26" version="1.1" xmlns="http://www.w3.org/2000/svg" xmlns:xlink="http://www.w3.org/1999/xlink">
    <g id="logo" stroke="none" stroke-width="1" fill="none" fill-rule="evenodd">
        <g id="newsfeeder" transform="translate(2.000000, 2.000000)">
            <g id="Group-2">
                <path d="M34.9370434,16.930909 L32.3802253,16.930909 L27.4029529,8.76613679 L27.4029529,16.930909 L24.8461349,16.930909 L24.8461349,4.52181887 L27.4029529,4.52181887 L32.3887481,12.7036366 L32.3887481,4.52181887 L34.9370434,4.52181887 L34.9370434,16.930909 Z M44.6359064,11.5530684 L39.7268158,11.5530684 L39.7268158,14.8769319 L45.4881791,14.8769319 L45.4881791,16.930909 L37.1699978,16.930909 L37.1699978,4.52181887 L45.4711337,4.52181887 L45.4711337,6.59284147 L39.7268158,6.59284147 L39.7268158,9.55022766 L44.6359064,9.55022766 L44.6359064,11.5530684 Z M56.6529512,13.3513638 L58.3234056,4.52181887 L60.8717009,4.52181887 L58.1188602,16.930909 L55.5449967,16.930909 L53.5251104,8.62977317 L51.5052242,16.930909 L48.9313607,16.930909 L46.17852,4.52181887 L48.7268153,4.52181887 L50.4057925,13.3343183 L52.4512469,4.52181887 L54.6160195,4.52181887 L56.6529512,13.3513638 Z M68.6870414,13.6752274 C68.6870414,13.1922705 68.5165885,12.8215356 68.1756778,12.5630116 C67.834767,12.3044876 67.2211368,12.031763 66.3347688,11.7448298 C65.4484008,11.4578966 64.7467033,11.175229 64.2296553,10.8968185 C62.8205574,10.1354511 62.116019,9.10989322 62.116019,7.82011412 C62.116019,7.14965627 62.3049376,6.55165092 62.6827804,6.02608014 C63.0606231,5.50050936 63.6032313,5.09000213 64.3106212,4.79454612 C65.018011,4.49909012 65.8120371,4.35136433 66.6927233,4.35136433 C67.5790913,4.35136433 68.3688561,4.51187408 69.0620413,4.83289839 C69.7552266,5.15392271 70.2935734,5.60704315 70.6770981,6.19227331 C71.0606227,6.77750348 71.2523821,7.44226952 71.2523821,8.18659137 L68.6955641,8.18659137 C68.6955641,7.61840675 68.5165886,7.17664983 68.1586323,6.86130736 C67.800676,6.5459649 67.2978401,6.38829603 66.6501097,6.38829603 C66.0251066,6.38829603 65.539316,6.52039697 65.1927234,6.78460282 C64.8461308,7.04880867 64.6728371,7.39681654 64.6728371,7.82863685 C64.6728371,8.23204793 64.87596,8.57011272 65.282212,8.84284134 C65.688464,9.11556996 66.2864694,9.3712492 67.076246,9.60988674 C68.5307986,10.0473889 69.5904471,10.5899971 70.2552231,11.2377276 C70.9199991,11.885458 71.2523821,12.6922681 71.2523821,13.658182 C71.2523821,14.7320509 70.8461362,15.574372 70.0336322,16.1851704 C69.2211282,16.7959689 68.1273892,17.1013636 66.7523824,17.1013636 C65.7978322,17.1013636 64.9285228,16.9266494 64.144428,16.5772159 C63.3603332,16.2277823 62.7623279,15.749094 62.350394,15.1411364 C61.9384602,14.5331789 61.7324963,13.8286405 61.7324963,13.0275002 L64.2978371,13.0275002 C64.2978371,14.3968251 65.1160107,15.0814773 66.7523824,15.0814773 C67.3603399,15.0814773 67.834767,14.957899 68.1756778,14.7107387 C68.5165885,14.4635784 68.6870414,14.1184114 68.6870414,13.6752274 Z M80.4484043,11.8598866 L75.5393137,11.8598866 L75.5393137,16.930909 L72.9824956,16.930909 L72.9824956,4.52181887 L81.0620406,4.52181887 L81.0620406,6.59284147 L75.5393137,6.59284147 L75.5393137,9.79738673 L80.4484043,9.79738673 L80.4484043,11.8598866 Z M90.0109037,11.5530684 L85.1018131,11.5530684 L85.1018131,14.8769319 L90.8631764,14.8769319 L90.8631764,16.930909 L82.5449951,16.930909 L82.5449951,4.52181887 L90.8461309,4.52181887 L90.8461309,6.59284147 L85.1018131,6.59284147 L85.1018131,9.55022766 L90.0109037,9.55022766 L90.0109037,11.5530684 Z M99.829085,11.5530684 L94.9199943,11.5530684 L94.9199943,14.8769319 L100.681358,14.8769319 L100.681358,16.930909 L92.3631763,16.930909 L92.3631763,4.52181887 L100.664312,4.52181887 L100.664312,6.59284147 L94.9199943,6.59284147 L94.9199943,9.55022766 L99.829085,9.55022766 L99.829085,11.5530684 Z M102.181358,16.930909 L102.181358,4.52181887 L105.999539,4.52181887 C107.090454,4.52181887 108.066296,4.76755503 108.927096,5.25903473 C109.787895,5.75051443 110.459764,6.44937104 110.942721,7.35562552 C111.425678,8.26187999 111.667152,9.29169918 111.667152,10.445114 L111.667152,11.0161367 C111.667152,12.1695514 111.429939,13.1951093 110.955505,14.092841 C110.481071,14.9905727 109.812043,15.6865885 108.948403,16.1809091 C108.084762,16.6752297 107.11034,16.9252272 106.025107,16.930909 L102.181358,16.930909 Z M104.738176,6.59284147 L104.738176,14.8769319 L105.973971,14.8769319 C106.973976,14.8769319 107.738176,14.5502306 108.266584,13.8968183 C108.794996,13.243406 109.06488,12.3087563 109.076243,11.0928415 L109.076243,10.4365912 C109.076243,9.17522137 108.814882,8.21926508 108.292153,7.56869368 C107.769423,6.91812229 107.005226,6.59284147 105.999539,6.59284147 L104.738176,6.59284147 Z M120.991016,11.5530684 L116.081925,11.5530684 L116.081925,14.8769319 L121.843288,14.8769319 L121.843288,16.930909 L113.525107,16.930909 L113.525107,4.52181887 L121.826243,4.52181887 L121.826243,6.59284147 L116.081925,6.59284147 L116.081925,9.55022766 L120.991016,9.55022766 L120.991016,11.5530684 Z M127.937038,12.3882957 L125.900106,12.3882957 L125.900106,16.930909 L123.343288,16.930909 L123.343288,4.52181887 L127.954083,4.52181887 C129.42,4.52181887 130.55067,4.84852012 131.346129,5.50193244 C132.141587,6.15534476 132.53931,7.07863093 132.53931,8.27181864 C132.53931,9.11841373 132.356073,9.82437254 131.989594,10.3897162 C131.623115,10.9550599 131.067723,11.4053395 130.323401,11.7405684 L133.00806,16.8115909 L133.00806,16.930909 L130.263742,16.930909 L127.937038,12.3882957 Z M125.900106,10.3172731 L127.962606,10.3172731 C128.604655,10.3172731 129.101809,10.1539224 129.454083,9.82721628 C129.806358,9.50051012 129.982492,9.05023056 129.982492,8.47636408 C129.982492,7.89113392 129.816301,7.43091128 129.483913,7.09568235 C129.151525,6.76045342 128.641587,6.59284147 127.954083,6.59284147 L125.900106,6.59284147 L125.900106,10.3172731 Z" id="NEWSFEEDER" fill="#FFFFFF" fill-rule="nonzero"></path>
                <g id="Group-4" stroke="#FFFFFF">
                    <rect id="Rectangle" stroke-width="2" stroke-linejoin="round" x="-1" y="-1" width="17" height="23" rx="1"></rect>
                    <path d="M3.75846287,4.80715322 L11.7584629,4.80715322" id="Line-3" stroke-width="2.32727259"></path>
                    <path d="M3.75846287,10.4727266 L11.7584629,10.4727266" id="Line-3-Copy" stroke-width="2.32727259"></path>
                    <path d="M3.75846287,16.1383001 L11.7584629,16.1383001" id="Line-3-Copy-2" stroke-width="2.32727259"></path>
                </g>
            </g>
        </g>
    </g>
</svg>